<svg width="39.043457" height="40.294556" viewBox="0 0 39.0435 40.2946" fill="none" xmlns="http://www.w3.org/2000/svg" xmlns:xlink="http://www.w3.org/1999/xlink">
    <desc>
        Created with Pixso.
    </desc>
    <defs/>
    <path id="Vector" d="M39.04 5.42C39.04 8.41 36.6 10.84 33.6 10.84C30.6 10.84 28.16 8.41 28.16 5.42C28.16 2.42 30.6 0 33.6 0C36.6 0 39.04 2.42 39.04 5.42Z" fill="#F59C1D" fill-opacity="1.000000" fill-rule="evenodd"/>
    <path id="Vector" d="M21.87 9.1C13.25 9.1 6.24 16.1 6.24 24.7C6.24 25.76 6.33 26.77 6.54 27.75L0 36.52L11.64 36.52C14.35 38.89 17.92 40.29 21.83 40.29C30.46 40.29 37.47 33.3 37.47 24.7C37.47 16.1 30.5 9.1 21.87 9.1ZM21.87 31.86C17.92 31.86 14.69 28.64 14.69 24.7C14.69 20.76 17.92 17.54 21.87 17.54C25.83 17.54 29.05 20.76 29.05 24.7C29.05 28.64 25.83 31.86 21.87 31.86Z" fill="#FFFFFF" fill-opacity="1.000000" fill-rule="nonzero"/>
</svg>
