<svg width="332.000000" height="249.000000" viewBox="0 0 332 249" fill="none" xmlns="http://www.w3.org/2000/svg" xmlns:xlink="http://www.w3.org/1999/xlink">
    <desc>
        Created with Pixso.
    </desc>
    <defs>
        <clipPath id="clip204_1044">
            <rect id="Rating" rx="0.000000" width="331.000000" height="248.000000" transform="translate(0.500000 0.500000)" fill="white" fill-opacity="0"/>
        </clipPath>
    </defs>
    <rect id="Rating" rx="0.000000" width="331.000000" height="248.000000" transform="translate(0.500000 0.500000)" fill="#FFFFFF" fill-opacity="0"/>
    <g clip-path="url(#clip204_1044)">
        <path id="Vector" d="M307.59 153.86C307.65 187.89 296.37 220.98 275.54 247.89L32.05 247.89C11.22 220.98 -0.06 187.89 -9.16e-5 153.86C-9.16e-5 68.88 68.86 0 153.8 0C238.74 0 307.59 68.88 307.59 153.86Z" fill="#FFFFFF" fill-opacity="1.000000" fill-rule="nonzero"/>
        <g opacity="0.100000">
            <path id="Vector" d="M307.59 153.86C307.65 187.89 296.37 220.98 275.54 247.89L32.05 247.89C11.22 220.98 -0.06 187.89 -9.16e-5 153.86C-9.16e-5 68.88 68.86 0 153.8 0C238.74 0 307.59 68.88 307.59 153.86Z" fill="#F8A435" fill-opacity="1.000000" fill-rule="nonzero"/>
        </g>
        <path id="Vector" d="M188 1.96L310.02 1.96C321.92 1.96 331.57 11.61 331.57 23.52L331.57 23.52C331.57 35.43 321.92 45.08 310.02 45.08L188 45.08C176.1 45.08 166.46 35.43 166.46 23.52L166.46 23.52C166.46 11.61 176.1 1.96 188 1.96Z" fill="#FFFFFF" fill-opacity="1.000000" fill-rule="evenodd"/>
        <path id="Vector" d="M310.02 45.51L188 45.51C182.19 45.48 176.63 43.15 172.53 39.03C168.43 34.91 166.13 29.33 166.13 23.52C166.13 17.71 168.43 12.13 172.53 8.01C176.63 3.89 182.19 1.56 188 1.54L310.02 1.54C312.92 1.52 315.78 2.08 318.46 3.18C321.14 4.28 323.57 5.9 325.63 7.94C327.68 9.98 329.31 12.41 330.42 15.08C331.53 17.76 332.1 20.63 332.1 23.52C332.1 26.42 331.53 29.28 330.42 31.96C329.31 34.63 327.68 37.06 325.63 39.1C323.57 41.15 321.14 42.76 318.46 43.86C315.78 44.96 312.92 45.52 310.02 45.51ZM188 2.39C182.4 2.39 177.03 4.61 173.07 8.58C169.11 12.54 166.88 17.92 166.88 23.52C166.88 29.13 169.11 34.5 173.07 38.46C177.03 42.43 182.4 44.65 188 44.65L310.02 44.65C315.62 44.65 321 42.43 324.96 38.46C328.92 34.5 331.14 29.13 331.14 23.52C331.14 17.92 328.92 12.54 324.96 8.58C321 4.61 315.62 2.39 310.02 2.39L188 2.39Z" fill="#474646" fill-opacity="1.000000" fill-rule="nonzero"/>
        <path id="Vector" d="M88.04 50.93C88.04 50.93 86.73 66.49 83.13 72.08C72.75 88.17 69.51 106.42 79.44 116.16C89.37 125.9 153.77 127.18 159.04 105.27C163.48 86.83 154.7 84.68 152.83 69.37C151.98 62.44 149.56 47.9 149.56 47.9L88.04 50.93Z" fill="#474646" fill-opacity="1.000000" fill-rule="nonzero"/>
        <path id="sk" d="M143 101.52C142.89 101.5 141.66 121.99 117.87 120.2C101.4 118.97 95.53 101.49 95.15 101.49C96.93 101.11 99.92 100.56 100.7 100.14C103.3 98.75 106.51 97.3 107.34 92.26C107.83 89.36 107.01 74.5 107.26 71.56L132.53 77.2C132.18 83.41 129.71 97.79 138.37 100.34C139.82 100.76 141.37 101.15 143 101.52Z" fill="#E98862" fill-opacity="1.000000" fill-rule="nonzero"/>
        <g opacity="0.500000">
            <path id="sh" d="M132.89 94.46C132.5 93.19 132.24 91.87 132.13 90.54C131.85 87.5 131.91 84.44 132.3 81.41C127.16 80.72 122.32 78.59 118.33 75.29C117.86 77.02 115.28 84.6 115.99 86.25C117.34 89.36 123.69 94.46 132.89 94.46Z" fill="#474646" fill-opacity="1.000000" fill-rule="nonzero"/>
        </g>
        <path id="Vector" d="M129.29 88.08C119.31 88.87 106.49 84.65 104.05 71.33L101.86 59.31C99.42 45.98 104.44 33.91 116.98 31.61C129.52 29.32 140.86 38.4 143.3 51.72L144.27 57.05C145.21 62.16 147.1 86.67 129.29 88.08Z" fill="#E98862" fill-opacity="1.000000" fill-rule="nonzero"/>
        <path id="Vector" d="M133.37 69.65L133.39 69.65C133.9 69.55 134.4 69.43 134.89 69.28C135.63 69.04 136.6 68.66 136.48 67.99C136.34 67.23 132.76 59.42 132.36 58.53C132.32 58.46 132.25 58.4 132.17 58.37C132.1 58.35 132.01 58.35 131.93 58.39C131.86 58.42 131.8 58.48 131.77 58.56C131.74 58.64 131.74 58.72 131.77 58.8C133.3 62.13 135.75 67.6 135.85 68.11C135.76 68.34 134.53 68.78 133.28 69.02C133.19 69.03 133.12 69.08 133.07 69.15C133.03 69.21 133.01 69.3 133.02 69.38C133.03 69.46 133.07 69.53 133.14 69.58C133.2 69.64 133.28 69.66 133.37 69.65Z" fill="#474646" fill-opacity="1.000000" fill-rule="nonzero"/>
        <path id="Vector" d="M131.48 75.39C133.52 75.13 135.48 74.4 137.19 73.26C137.26 73.21 137.31 73.14 137.33 73.05C137.35 72.97 137.33 72.88 137.28 72.81C137.24 72.74 137.17 72.69 137.08 72.67C137 72.65 136.91 72.67 136.84 72.71C133.14 75.09 129.47 75.46 126.24 73.77C126.17 73.74 126.11 73.71 126.04 73.68C125.96 73.65 125.87 73.65 125.79 73.69C125.71 73.72 125.65 73.79 125.63 73.87C125.6 73.95 125.6 74.04 125.64 74.11C125.67 74.19 125.74 74.25 125.82 74.28C125.84 74.29 125.88 74.31 125.94 74.35C127.64 75.24 129.57 75.6 131.48 75.39Z" fill="#474646" fill-opacity="1.000000" fill-rule="nonzero"/>
        <path id="Vector" d="M91.81 63.43L103.05 61.44C111.57 58.05 114.24 43.34 114.24 43.34C114.24 43.34 124.5 53.47 149.56 47.9C149.56 47.9 144.76 12.95 107.72 22.88C95.78 26.08 87.15 38.05 88.12 54.12C88.79 65.38 91.81 63.43 91.81 63.43Z" fill="#474646" fill-opacity="1.000000" fill-rule="nonzero"/>
        <path id="Vector" d="M105.57 75.24C101.76 75.94 97.93 72.43 97.23 68.62C96.53 64.8 99.24 62.14 103.05 61.44L105.48 63.63L108.85 74.64L105.57 75.24Z" fill="#E98862" fill-opacity="1.000000" fill-rule="nonzero"/>
        <path id="Vector" d="M135.16 52.41C136.12 51.75 137.24 51.36 138.4 51.28C138.98 51.24 139.57 51.28 140.14 51.41C140.71 51.54 141.27 51.74 141.8 52L141.81 52.01C141.87 52.04 141.94 52.04 142 52.02C142.06 52 142.11 51.95 142.13 51.89C142.16 51.84 142.17 51.77 142.15 51.71C142.13 51.65 142.08 51.6 142.03 51.57C141.47 51.26 140.88 51.03 140.26 50.87C139.64 50.71 139 50.64 138.36 50.67C137.07 50.71 135.81 51.11 134.72 51.81C134.68 51.84 134.64 51.87 134.61 51.91C134.59 51.95 134.57 52 134.56 52.05C134.55 52.09 134.55 52.14 134.56 52.19C134.57 52.24 134.58 52.28 134.61 52.32C134.64 52.36 134.67 52.4 134.71 52.43C134.75 52.45 134.8 52.47 134.85 52.48C134.89 52.49 134.94 52.49 134.99 52.48C135.04 52.47 135.08 52.46 135.12 52.43L135.13 52.42L135.16 52.41Z" fill="#474646" fill-opacity="1.000000" fill-rule="nonzero"/>
        <path id="Vector" d="M124.9 53.64C123.63 53.36 122.32 53.43 121.08 53.84C120.47 54.04 119.9 54.33 119.37 54.7C118.85 55.06 118.38 55.49 117.97 55.97C117.94 55.99 117.93 56.02 117.92 56.05C117.9 56.08 117.9 56.11 117.9 56.15C117.9 56.21 117.93 56.27 117.98 56.32C118.02 56.36 118.09 56.39 118.15 56.39C118.22 56.38 118.28 56.36 118.32 56.31L118.34 56.3C118.74 55.86 119.19 55.48 119.68 55.16C120.17 54.84 120.71 54.59 121.27 54.43C122.39 54.1 123.57 54.07 124.7 54.35L124.73 54.36C124.82 54.38 124.92 54.37 125.01 54.32C125.09 54.27 125.15 54.19 125.18 54.09C125.2 54 125.19 53.9 125.14 53.81C125.09 53.73 125.01 53.67 124.91 53.64L124.9 53.64Z" fill="#474646" fill-opacity="1.000000" fill-rule="nonzero"/>
        <path id="Vector" d="M131.89 78.41C132.26 78.37 132.63 78.3 132.99 78.2C133.07 78.17 133.14 78.12 133.18 78.04C133.22 77.97 133.23 77.88 133.21 77.8C133.19 77.72 133.13 77.65 133.06 77.61C132.98 77.57 132.89 77.55 132.81 77.58C130.66 78.18 129.44 77.36 129.39 77.32C129.32 77.27 129.23 77.25 129.15 77.26C129.06 77.28 128.99 77.33 128.94 77.4C128.89 77.47 128.87 77.55 128.88 77.64C128.9 77.72 128.94 77.79 129.01 77.84C129.88 78.36 130.9 78.56 131.89 78.41Z" fill="#474646" fill-opacity="1.000000" fill-rule="nonzero"/>
        <path id="Vector" d="M103.06 61.26C110.64 58.59 113.23 53.43 114.07 49.57C114.61 47 114.61 44.34 114.07 41.77L113.83 41.83C114.37 44.37 114.37 46.99 113.83 49.53C113 53.32 110.45 58.4 102.98 61.03L103.06 61.26Z" fill="#474646" fill-opacity="1.000000" fill-rule="nonzero"/>
        <g opacity="0.100000">
            <path id="Vector" d="M126.02 68.08C126.14 69.29 124.91 70.4 123.27 70.57C121.62 70.74 120.19 69.89 120.07 68.69C119.95 67.48 121.18 66.37 122.82 66.2C124.47 66.04 125.9 66.88 126.02 68.08Z" fill="#474646" fill-opacity="1.000000" fill-rule="evenodd"/>
        </g>
        <g opacity="0.100000">
            <path id="Vector" d="M140.68 66.07C140.8 67.27 142.23 68.11 143.88 67.95C144.16 67.92 144.44 67.86 144.71 67.77C144.82 66.34 144.84 64.96 144.83 63.69C144.37 63.57 143.9 63.53 143.43 63.58C141.79 63.75 140.56 64.86 140.68 66.07Z" fill="#474646" fill-opacity="1.000000" fill-rule="nonzero"/>
        </g>
        <path id="Vector" d="M68.28 223.23L65.43 248.51L168.91 248.51L167.32 223.07L68.28 223.23Z" fill="#474646" fill-opacity="1.000000" fill-rule="nonzero"/>
        <path id="b_1_b" d="M117.32 115.11C100.84 114.33 100.15 100.34 100.15 100.34C100.15 100.34 91.99 100.87 86.56 101.6C77.67 102.81 68.25 105.86 63.98 113.25C60.9 118.57 60.16 119.53 62.96 149.52C64.98 171.23 68.28 223.23 68.28 223.23L167.32 223.07C167.32 223.07 171.73 156.39 172.56 146.62C174.14 127.95 176.65 101.65 171.33 100.34C165.14 98.81 144.92 101.33 138.38 100.34C138.27 100.33 139.76 116.17 117.32 115.11Z" fill="#F8A435" fill-opacity="1.000000" fill-rule="nonzero"/>
        <path id="Vector" d="M292.85 41.97C292.99 41.64 293.2 41.35 293.46 41.11C293.72 40.86 294.03 40.68 294.37 40.56C294.7 40.44 295.06 40.39 295.41 40.41C295.77 40.44 296.11 40.53 296.43 40.69C297.03 41.03 297.49 41.58 297.7 42.23C297.91 42.89 297.87 43.6 297.58 44.23L296.14 47.46L305.35 39.33C306.36 38.4 308.19 37.92 309.15 39.12C309.54 39.55 309.78 40.11 309.82 40.7C309.86 41.3 309.7 41.88 309.37 42.37C309.38 42.38 309.39 42.39 309.4 42.4C309.4 42.4 309.41 42.41 309.41 42.42L310.97 41C311.25 40.74 311.6 40.54 311.97 40.43C312.34 40.32 312.73 40.29 313.11 40.34C313.5 40.4 313.86 40.54 314.18 40.75C314.51 40.97 314.78 41.25 314.98 41.58C315.29 42.12 315.4 42.74 315.3 43.35C315.2 43.97 314.89 44.52 314.43 44.93L313.77 45.54C313.78 45.57 313.78 45.59 313.78 45.62C314.32 45.32 314.94 45.22 315.55 45.33C316.15 45.44 316.7 45.77 317.09 46.24C317.51 46.79 317.7 47.48 317.63 48.16C317.57 48.85 317.24 49.48 316.72 49.94L315.1 51.43C315.13 51.42 315.17 51.42 315.21 51.44C315.25 51.45 315.28 51.47 315.3 51.5C315.33 51.54 315.35 51.58 315.36 51.62C315.9 51.49 316.47 51.53 316.99 51.75C317.5 51.96 317.94 52.34 318.23 52.81C318.54 53.35 318.65 53.98 318.55 54.59C318.45 55.2 318.14 55.76 317.68 56.17L303.82 68.85C301.88 70.62 299.46 71.78 296.85 72.16C294.26 72.55 291.6 72.15 289.23 71.02L281.6 67.37L292.85 41.97Z" fill="#E98862" fill-opacity="1.000000" fill-rule="nonzero"/>
        <g opacity="0.200000">
            <g opacity="0.200000">
                <path id="Vector" d="M300.29 50.47C300.34 50.51 300.4 50.54 300.46 50.55C300.52 50.55 300.59 50.53 300.63 50.48L309.38 42.74C309.4 42.72 309.42 42.69 309.44 42.66C309.45 42.63 309.46 42.6 309.46 42.57C309.46 42.54 309.46 42.51 309.45 42.48C309.44 42.45 309.42 42.42 309.4 42.4C309.38 42.37 309.35 42.35 309.32 42.34C309.29 42.33 309.26 42.32 309.23 42.32C309.2 42.31 309.17 42.32 309.14 42.33C309.11 42.34 309.08 42.35 309.06 42.38L300.31 50.12C300.29 50.14 300.26 50.17 300.25 50.2C300.24 50.23 300.23 50.26 300.23 50.29C300.23 50.32 300.23 50.35 300.24 50.38C300.25 50.41 300.27 50.44 300.29 50.46L300.29 50.47Z" fill="#474646" fill-opacity="1.000000" fill-rule="nonzero"/>
            </g>
        </g>
        <g opacity="0.200000">
            <g opacity="0.200000">
                <path id="Vector" d="M303.6 54.42C303.65 54.47 303.71 54.5 303.77 54.5C303.83 54.5 303.89 54.48 303.94 54.44L313.7 45.79C313.73 45.77 313.75 45.75 313.76 45.72C313.77 45.69 313.78 45.66 313.78 45.63C313.79 45.59 313.78 45.56 313.77 45.53C313.76 45.5 313.74 45.47 313.72 45.45C313.68 45.4 313.62 45.38 313.56 45.37C313.49 45.37 313.43 45.39 313.38 45.43L303.62 54.08C303.6 54.1 303.58 54.12 303.56 54.15C303.55 54.18 303.54 54.21 303.54 54.24C303.54 54.27 303.54 54.31 303.55 54.34C303.56 54.37 303.58 54.39 303.6 54.42L303.6 54.42Z" fill="#474646" fill-opacity="1.000000" fill-rule="nonzero"/>
            </g>
        </g>
        <g opacity="0.200000">
            <g opacity="0.200000">
                <path id="Vector" d="M307.16 58.72C307.2 58.77 307.26 58.8 307.33 58.8C307.39 58.8 307.45 58.78 307.5 58.74L315.29 51.84C315.33 51.8 315.36 51.74 315.37 51.68C315.37 51.61 315.35 51.55 315.31 51.5C315.26 51.45 315.2 51.42 315.14 51.42C315.08 51.42 315.01 51.44 314.97 51.48L307.18 58.38C307.16 58.4 307.14 58.42 307.12 58.45C307.11 58.48 307.1 58.51 307.1 58.54C307.1 58.58 307.1 58.61 307.11 58.64C307.12 58.67 307.14 58.7 307.16 58.72L307.16 58.72Z" fill="#474646" fill-opacity="1.000000" fill-rule="nonzero"/>
            </g>
        </g>
        <path id="Vector" d="M284.02 50.93L231.53 93.95L158.88 100.5C154.22 100.9 149.89 103.07 146.8 106.58C143.71 110.09 142.09 114.66 142.28 119.33C142.48 124 144.47 128.42 147.84 131.66C151.22 134.9 155.71 136.71 160.39 136.71C160.9 136.71 161.41 136.69 161.93 136.64L240.29 129.6C244 129.29 247.53 127.84 250.39 125.45L305.35 76.66L284.02 50.93Z" fill="#F8A435" fill-opacity="1.000000" fill-rule="nonzero"/>
        <path id="Vector" d="M295.66 48.67L297.58 44.23C297.87 43.6 297.91 42.89 297.7 42.23C297.49 41.58 297.03 41.03 296.43 40.69C296.11 40.53 295.77 40.44 295.41 40.41C295.06 40.39 294.7 40.44 294.37 40.56C294.03 40.68 293.72 40.86 293.46 41.11C293.2 41.35 292.99 41.64 292.85 41.97L295.66 48.67Z" fill="#E98862" fill-opacity="1.000000" fill-rule="nonzero"/>
        <path id="Vector" d="M158.63 182.02C158.58 182.71 158.26 183.35 157.76 183.81C157.25 184.28 156.58 184.53 155.89 184.53L153.69 184.55C153.72 184.57 153.75 184.6 153.77 184.64C153.78 184.67 153.79 184.71 153.79 184.75C153.79 184.79 153.78 184.84 153.75 184.88C154.25 185.14 154.64 185.55 154.89 186.05C155.13 186.56 155.2 187.13 155.1 187.68C154.97 188.28 154.64 188.83 154.15 189.21C153.67 189.6 153.07 189.81 152.45 189.81L133.67 190.01C131.05 190.04 128.47 189.29 126.27 187.84C124.08 186.4 122.37 184.33 121.36 181.9L118.09 174.09L128.09 171.96L128.32 169.47L143.41 162.66C143.74 162.51 144.09 162.43 144.44 162.43C144.8 162.42 145.15 162.49 145.48 162.62C145.81 162.75 146.11 162.96 146.36 163.21C146.61 163.46 146.8 163.77 146.93 164.1C147.16 164.75 147.13 165.46 146.85 166.09C146.58 166.72 146.07 167.23 145.43 167.5L142.21 168.95L154.49 169.03C155.86 169.02 157.54 169.87 157.46 171.4C157.47 172 157.27 172.57 156.91 173.04C156.55 173.51 156.03 173.84 155.46 173.98C155.46 173.99 155.46 174 155.46 174.02L155.46 174.05L157.56 174.02C157.95 174.02 158.33 174.1 158.69 174.26C159.04 174.43 159.35 174.67 159.6 174.96C159.85 175.26 160.03 175.61 160.13 175.99C160.23 176.36 160.24 176.76 160.17 177.14C160.04 177.74 159.71 178.28 159.22 178.67C158.74 179.06 158.14 179.27 157.53 179.27L156.62 179.28C156.61 179.3 156.6 179.32 156.58 179.35C157.18 179.48 157.72 179.82 158.09 180.31C158.46 180.8 158.65 181.4 158.63 182.02Z" fill="#E98862" fill-opacity="1.000000" fill-rule="nonzero"/>
        <g opacity="0.200000">
            <g opacity="0.200000">
                <path id="Vector" d="M143.3 173.96C143.3 174.03 143.32 174.09 143.37 174.13C143.41 174.17 143.47 174.2 143.54 174.2L155.22 174.26C155.28 174.26 155.35 174.24 155.39 174.19C155.44 174.14 155.46 174.08 155.46 174.02C155.46 173.95 155.44 173.89 155.39 173.85C155.35 173.8 155.28 173.78 155.22 173.78L143.54 173.72C143.47 173.72 143.41 173.74 143.37 173.79C143.32 173.83 143.3 173.89 143.3 173.96L143.3 173.96Z" fill="#474646" fill-opacity="1.000000" fill-rule="nonzero"/>
            </g>
        </g>
        <g opacity="0.200000">
            <g opacity="0.200000">
                <path id="Vector" d="M143.13 179.12C143.13 179.18 143.15 179.24 143.2 179.28C143.24 179.33 143.31 179.35 143.37 179.35L156.41 179.42C156.47 179.42 156.53 179.4 156.58 179.35C156.62 179.31 156.65 179.24 156.65 179.18C156.64 179.12 156.62 179.06 156.57 179.01C156.53 178.97 156.47 178.94 156.41 178.94L143.37 178.87C143.3 178.87 143.24 178.9 143.2 178.94C143.15 178.99 143.13 179.05 143.13 179.11L143.13 179.12Z" fill="#474646" fill-opacity="1.000000" fill-rule="nonzero"/>
            </g>
        </g>
        <g opacity="0.200000">
            <g opacity="0.200000">
                <path id="Vector" d="M142.91 184.7C142.91 184.76 142.94 184.82 142.98 184.86C143.03 184.91 143.09 184.93 143.15 184.93L153.55 184.99C153.62 184.99 153.68 184.96 153.72 184.92C153.77 184.87 153.79 184.81 153.79 184.75C153.79 184.68 153.77 184.62 153.72 184.57C153.68 184.53 153.62 184.5 153.55 184.5L143.15 184.45C143.09 184.45 143.03 184.48 142.98 184.52C142.94 184.57 142.91 184.63 142.91 184.69L142.91 184.7Z" fill="#474646" fill-opacity="1.000000" fill-rule="nonzero"/>
            </g>
        </g>
        <path id="Vector" d="M132.7 195.6L54.08 209.62C50.77 210.49 47.29 210.42 44.03 209.4C40.76 208.38 37.86 206.46 35.64 203.86C33.42 201.26 31.98 198.08 31.49 194.7C31 191.32 31.47 187.86 32.86 184.74L61.49 118.1C65.55 108.94 75.59 104.82 84.74 108.88C89.13 110.83 92.57 114.44 94.3 118.93C96.03 123.42 95.9 128.41 93.96 132.81L77.14 172.68L129.72 165.69L132.7 195.6Z" fill="#F8A435" fill-opacity="1.000000" fill-rule="nonzero"/>
        <path id="Vector" d="M67.63 207.53C67.65 207.53 67.67 207.53 67.69 207.53L132.77 195.84C132.83 195.82 132.88 195.78 132.91 195.72C132.94 195.67 132.95 195.6 132.94 195.54L129.96 164.66C129.94 164.6 129.9 164.55 129.85 164.52C129.79 164.49 129.73 164.48 129.67 164.49L77.57 172.33L94.17 132.91C94.19 132.85 94.19 132.79 94.17 132.73C94.15 132.67 94.11 132.63 94.05 132.6C94 132.57 93.93 132.57 93.87 132.59C93.81 132.61 93.76 132.65 93.73 132.7L76.92 172.58C76.9 172.62 76.9 172.67 76.9 172.71C76.91 172.76 76.92 172.8 76.95 172.83C76.98 172.87 77.02 172.9 77.06 172.91C77.1 172.92 77.15 172.93 77.19 172.92L129.55 165.01L132.41 195.43L67.56 207.06C67.5 207.08 67.46 207.11 67.42 207.16C67.39 207.21 67.38 207.27 67.39 207.33C67.4 207.39 67.42 207.44 67.47 207.48C67.51 207.52 67.57 207.54 67.63 207.54L67.63 207.53Z" fill="#474646" fill-opacity="1.000000" fill-rule="nonzero"/>
        <path id="Vector" d="M70.63 173.8C70.65 173.8 70.67 173.79 70.68 173.79L77.19 172.92C77.22 172.91 77.25 172.9 77.28 172.88C77.31 172.86 77.33 172.84 77.35 172.81C77.36 172.79 77.37 172.76 77.38 172.73C77.39 172.69 77.39 172.66 77.38 172.63C77.37 172.6 77.36 172.57 77.34 172.54C77.32 172.52 77.3 172.5 77.27 172.48C77.25 172.46 77.22 172.45 77.18 172.44C77.15 172.44 77.12 172.44 77.09 172.45L70.58 173.32C70.52 173.33 70.47 173.36 70.44 173.41C70.4 173.46 70.39 173.52 70.39 173.58C70.4 173.64 70.43 173.69 70.47 173.73C70.52 173.77 70.57 173.79 70.63 173.79L70.63 173.8Z" fill="#474646" fill-opacity="1.000000" fill-rule="nonzero"/>
        <path id="Vector" d="M173.48 135.91C173.54 135.91 173.6 135.89 173.64 135.84C173.69 135.8 173.71 135.75 173.72 135.69L174.8 121.74C174.8 121.68 174.78 121.61 174.74 121.56C174.7 121.51 174.64 121.48 174.57 121.48C174.51 121.47 174.45 121.5 174.4 121.54C174.35 121.58 174.32 121.64 174.31 121.7L173.24 135.65C173.23 135.71 173.25 135.78 173.29 135.82C173.33 135.87 173.39 135.9 173.46 135.91C173.46 135.91 173.47 135.91 173.48 135.91Z" fill="#474646" fill-opacity="1.000000" fill-rule="nonzero"/>
        <path id="Vector" d="M142.1 55.41C142.1 56.28 141.39 56.98 140.53 56.98C139.66 56.98 138.96 56.28 138.96 55.41C138.96 54.54 139.66 53.84 140.53 53.84C141.39 53.84 142.1 54.54 142.1 55.41Z" fill="#474646" fill-opacity="1.000000" fill-rule="evenodd"/>
        <path id="Vector" d="M126.18 58.1C126.18 58.97 125.48 59.67 124.61 59.67C123.75 59.67 123.04 58.97 123.04 58.1C123.04 57.23 123.75 56.53 124.61 56.53C125.48 56.53 126.18 57.23 126.18 58.1Z" fill="#474646" fill-opacity="1.000000" fill-rule="evenodd"/>
        <path id="Vector" d="M29.05 249L278.53 249C278.66 249 278.78 248.94 278.88 248.85C278.97 248.76 279.02 248.64 279.02 248.51C279.02 248.38 278.97 248.26 278.88 248.17C278.78 248.08 278.66 248.03 278.53 248.03L29.05 248.03C28.93 248.03 28.8 248.08 28.71 248.17C28.62 248.26 28.57 248.38 28.57 248.51C28.57 248.64 28.62 248.76 28.71 248.85C28.8 248.94 28.93 249 29.05 249Z" fill="#292A2E" fill-opacity="1.000000" fill-rule="nonzero"/>
        <circle id="Ellipse 32" cx="194.000000" cy="23.000000" r="13.000000" fill="#F8A435" fill-opacity="1.000000"/>
        <circle id="Ellipse 33" cx="232.000000" cy="23.000000" r="13.000000" fill="#F8A435" fill-opacity="1.000000"/>
        <circle id="Ellipse 34" cx="270.000000" cy="23.000000" r="13.000000" fill="#F8A435" fill-opacity="1.000000"/>
        <circle id="Ellipse 35" cx="307.000000" cy="23.000000" r="13.000000" fill="#F8A435" fill-opacity="1.000000"/>
    </g>
</svg>
